<?xml version="1.0" standalone="no"?>
<!DOCTYPE svg PUBLIC "-//W3C//DTD SVG 20010904//EN"
 "http://www.w3.org/TR/2001/REC-SVG-20010904/DTD/svg10.dtd">
<svg version="1.0" xmlns="http://www.w3.org/2000/svg"
 width="225.000000pt" height="225.000000pt" viewBox="0 0 225.000000 225.000000"
 preserveAspectRatio="xMidYMid meet">

<g transform="translate(0.000000,225.000000) scale(0.100000,-0.100000)"
fill="#000000" stroke="none">
<path d="M207 2236 c-89 -24 -178 -118 -197 -209 -7 -37 -10 -320 -8 -932 3
-986 -2 -912 78 -999 23 -25 63 -55 88 -68 l47 -23 1018 -3 1017 -2 -2 1017
c-3 1014 -3 1018 -24 1064 -27 58 -85 116 -143 143 -46 21 -52 21 -936 23
-704 2 -900 -1 -938 -11z m1535 -100 c114 -25 212 -89 273 -182 58 -88 78
-160 72 -272 -4 -81 -9 -101 -41 -166 -85 -172 -273 -269 -459 -238 -131 23
-262 115 -317 222 -64 125 -66 273 -6 395 65 131 183 220 326 245 66 11 79 11
152 -4z m-577 -23 c-3 -10 -106 -283 -227 -608 -121 -324 -239 -626 -261 -670
-28 -54 -63 -102 -107 -146 -57 -58 -75 -70 -134 -88 -108 -33 -106 -34 -106
59 0 68 3 81 18 86 93 30 150 83 178 166 28 85 17 126 -116 468 -67 173 -125
321 -127 328 -4 9 18 12 90 12 l95 0 11 -32 c5 -18 42 -134 81 -258 l72 -224
166 462 166 462 104 0 c95 0 104 -2 97 -17z m142 -982 c57 -29 111 -84 137
-140 29 -65 29 -180 -1 -237 -36 -68 -74 -105 -138 -135 -115 -55 -246 -30
-329 62 -172 192 -32 490 224 476 41 -3 81 -12 107 -26z"/>
</g>
</svg>
